
<svg xmlns="http://www.w3.org/2000/svg" xmlns:xlink="http://www.w3.org/1999/xlink" width="65px" height="64px" viewBox="0 0 65 64"><g id="icons/certifications/vegan/large/icon-vegan-white-large" stroke="none" stroke-width="1" fill="none" fill-rule="evenodd"><rect fill="none" x="0" y="0" width="65" height="64"></rect><path d="M32.0488953,-3.55271368e-15 C49.7470452,-3.55271368e-15 64.0977905,14.2246403 64.0977905,31.7760578 C64.0977905,49.3274753 49.7470452,63.5521156 32.0488953,63.5521156 C14.3507453,63.5521156 -3.69482223e-13,49.3274753 -3.69482223e-13,31.7760578 C-3.69482223e-13,14.2246403 14.3507453,-3.55271368e-15 32.0488953,-3.55271368e-15 Z M32.0488953,2 C15.4513825,2 2,15.3331806 2,31.7760578 C2,48.218935 15.4513825,61.5521156 32.0488953,61.5521156 C48.646408,61.5521156 62.0977905,48.218935 62.0977905,31.7760578 C62.0977905,15.3331806 48.646408,2 32.0488953,2 Z M17.9707995,11.9804907 L18.6067942,12.2219938 C19.0649158,12.395954 19.8307082,12.7524794 20.802286,13.31601 C22.4076122,14.2471249 24.0107444,15.4338415 25.5079681,16.902016 C28.4911803,19.827348 30.6741821,23.4929427 31.7093832,27.9621652 C33.0577104,33.7832313 32.0043281,38.8691487 29.4252727,43.0953725 C28.7985855,44.1223069 28.1262155,45.0170032 27.4513693,45.7764213 C27.1424695,46.1240325 26.8808873,46.3913562 26.6845605,46.5769899 L26.6845605,46.5769899 L26.5106498,46.7353416 L26.1178955,47.0765056 L25.4804387,46.9158845 C25.3183762,46.8713076 25.1271672,46.8118787 24.9099426,46.7362765 C24.9776234,48.0006772 25.0151862,49.2800726 25.0198207,50.571032 L24.3949228,51.1879007 C25.9680332,49.6093222 27.5875121,48.1526343 29.2343206,46.8137622 C29.2772191,46.5339561 29.3306159,46.236303 29.395484,45.9248839 C29.7917368,44.0225515 30.5234575,42.1313526 31.6743719,40.3617809 C33.0092233,38.3093993 34.831351,36.5486736 37.1943549,35.1737208 L37.1943549,35.1737208 L37.5795425,34.9556871 C41.0519672,33.044476 44.6858722,32.503143 48.2699181,32.9876144 C49.590585,33.1661348 50.8196281,33.4750392 51.9328264,33.867133 C52.6435243,34.1174569 53.1877749,34.3572857 53.5449371,34.5425968 L53.5449371,34.5425968 L54.143215,34.8561538 L54.0802692,35.6608886 C54.0240758,36.2341548 53.8725334,37.1176485 53.5741312,38.2158413 C53.0346755,40.2011703 52.1846115,42.1863609 50.9531009,44.0440526 C49.4570371,46.3008138 47.4971874,48.209112 45.0210626,49.6498861 C40.3279379,52.380658 35.7269429,52.3910995 31.6787358,50.7640617 C30.6635327,50.3560357 29.9247178,49.9418148 29.5056192,49.6490246 L29.5056192,49.6490246 L29.2093493,49.4418368 C28.0575907,50.4326891 26.9225599,51.4848248 25.8115878,52.5996585 C25.5291912,52.8830368 25.2492593,53.1696672 24.9718677,53.4595648 L24.9629547,53.7841643 L24.6741483,53.773 C24.6327513,53.8169038 24.5914124,53.8608814 24.5501316,53.9049329 L23.9325216,54.5743322 L22.977,53.707 L22.9644815,53.7060318 L22.964,53.695 L22.4520938,53.2295894 L22.9983839,52.63856 C23.0546095,50.3378723 23.0013494,48.0700787 22.8518651,45.8465643 C21.4589883,45.1433834 20.077917,44.2242747 18.7779493,43.0622928 C15.8772039,40.4694486 13.7460004,36.9973053 12.7140025,32.5426975 C11.364979,26.7186255 12.3445596,21.3209907 14.7955477,16.5867681 C15.3814703,15.4550254 16.0099568,14.4507381 16.6403905,13.5835525 C17.0240546,13.0558078 17.3281916,12.6857716 17.5126146,12.4833621 L17.5126146,12.4833621 L17.9707995,11.9804907 Z M48.0020058,34.969589 C44.702786,34.5236188 41.378285,35.0533494 38.2001665,36.9024033 C36.1123239,38.1172489 34.5180083,39.6578394 33.3509591,41.4522189 C32.6356847,42.5519787 32.1042155,43.708829 31.7315403,44.8861721 C33.2571625,43.7704187 34.7968029,42.7512089 36.3367638,41.8254743 C37.7646566,40.9671086 39.0923358,40.2511654 40.2864679,39.6705916 L40.7685892,39.4402785 C40.9217675,39.368469 41.0673282,39.3016025 41.2050049,39.239623 L41.6984893,39.023921 L41.8209374,38.9734759 L42.5636779,40.8304456 L42.2113696,40.9808019 L41.8258203,41.1544398 C41.6213076,41.2484693 41.3993887,41.353354 41.1609666,41.4692722 C40.0187048,42.0246273 38.7429737,42.7125577 37.3671938,43.5395963 C35.2716931,44.799289 33.1755579,46.2389067 31.1188268,47.8661744 C31.1045285,48.0109616 31.0947198,48.1461912 31.088,48.273 L31.088,48.273 L31.3227194,48.4011373 C31.5687726,48.5305651 31.8375013,48.6594973 32.1275186,48.7846143 L32.1275186,48.7846143 L32.4245807,48.9083367 C35.9404939,50.3214372 39.9056568,50.3124387 44.015213,47.9212257 C46.2160329,46.6406424 47.9540974,44.9482956 49.2861274,42.9389738 C50.3908373,41.2725565 51.1575944,39.4819162 51.6441115,37.6914142 C51.8140026,37.0661733 51.9364584,36.487284 52.019085,35.9707019 L52.009,36.029 C51.1054208,35.6419065 49.8656343,35.2573385 48.3788071,35.0245399 L48.3788071,35.0245399 Z M18.542,14.379 L18.4962541,14.4389685 L18.2580816,14.7595947 C17.6846677,15.5483476 17.1093065,16.4677434 16.5716381,17.5062806 C14.3244311,21.8468883 13.4304683,26.7727564 14.6624085,32.0913506 C15.5986812,36.1327614 17.50965,39.2460997 20.1108081,41.5711566 C20.9291135,42.3026024 21.7837539,42.9267943 22.6516917,43.4521681 C22.3459434,40.3635485 21.8579454,37.3732402 21.2254768,34.5109397 C20.8771757,32.9346682 20.5071001,31.5040971 20.1351142,30.23613 L19.9955687,29.7682974 C19.8788763,29.3835427 19.7690825,29.0378728 19.6680004,28.7328257 L19.4475867,28.0943506 L21.321644,27.3958455 L21.4877298,27.8688579 L21.7320116,28.6149848 C21.7893329,28.7959704 21.8485647,28.9869808 21.9094793,29.1878266 C22.3426701,30.61613 22.775136,32.2545453 23.1783694,34.0794185 C23.9144518,37.4106336 24.459775,40.9094204 24.7589364,44.5302083 C25.0681021,44.66241 25.3584451,44.7728018 25.6269425,44.864431 L25.6269425,44.864431 L25.585,44.849 L25.8283746,44.5901834 L25.9563629,44.4479049 C26.5550154,43.7742291 27.1561441,42.9743307 27.7180557,42.0535424 C30.0388495,38.2505243 30.983296,33.6905686 29.7609684,28.4134743 C28.8160859,24.33418 26.8304062,20.9999191 24.1076754,18.3300148 C22.7366401,16.9855803 21.2666376,15.8974127 19.7988292,15.0460604 C19.2876802,14.7495858 18.8148341,14.5044681 18.3931448,14.3081448 L18.542,14.379 Z" id="Combined-Shape" fill="#FFFFFF" fill-rule="nonzero"></path></g></svg> 